<svg viewBox="0 0 24 24" xmlns="http://www.w3.org/2000/svg" focusable="false">
                      <defs>
                        <linearGradient
                          id="dsId_e8_6p9NiEK0_linear_1525_526"
                          x1="10.5"
                          y1="1"
                          x2="10.5"
                          y2="10.608"
                          gradientUnits="userSpaceOnUse"
                        >
                          <stop stopColor="currentColor"></stop>
                          <stop offset="1" stopOpacity=".5" stopColor="currentColor"></stop>
                        </linearGradient>
                      </defs>
                      <path d="M3 19a6 6 0 0 1 6-6h6a6 6 0 0 1 6 6v3H3v-3Z" fill="#9299A2"></path>
                      <path
                        opacity=".35"
                        fillRule="evenodd"
                        clipRule="evenodd"
                        d="M16.223 2.952a2.454 2.454 0 0 1-2.177 1.32H11.59a2.455 2.455 0 0 0-2.454 2.455v3.88A4.5 4.5 0 0 0 16.5 7.137V4.273c0-.47-.1-.917-.278-1.32Z"
                        fill="#9299A2"
                      ></path>
                      <path
                        fillRule="evenodd"
                        clipRule="evenodd"
                        d="M16.223 2.952A3.274 3.274 0 0 0 13.227 1H7.5v6.136a4.49 4.49 0 0 0 1.636 3.472v-3.88a2.455 2.455 0 0 1 2.455-2.455h2.455c.946 0 1.767-.536 2.177-1.32Z"
                        fill="#9299A2"
                      ></path>
                    </svg>